{
	"asset":{
		"generator":"Khronos glTF Blender I/O v4.1.63",
		"version":"2.0"
	},
	"scene":0,
	"scenes":[
		{
			"name":"Scene",
			"nodes":[
				0
			]
		}
	],
	"nodes":[
		{
			"mesh":0,
			"name":"C\u00edrculo"
		}
	],
	"materials":[
		{
			"doubleSided":true,
			"name":"white",
			"pbrMetallicRoughness":{
				"baseColorFactor":[
					0.800000011920929,
					0.800000011920929,
					0.800000011920929,
					1
				],
				"metallicFactor":0.25600001215934753,
				"roughnessFactor":0
			}
		},
		{
			"doubleSided":true,
			"name":"color",
			"pbrMetallicRoughness":{
				"baseColorFactor":[
					0.8001810312271118,
					0.02053021639585495,
					0.018286623060703278,
					1
				],
				"metallicFactor":0.25600001215934753,
				"roughnessFactor":0
			}
		},
		{
			"doubleSided":true,
			"name":"base",
			"pbrMetallicRoughness":{
				"baseColorFactor":[
					0,
					0,
					0,
					1
				],
				"metallicFactor":0,
				"roughnessFactor":0.5
			}
		}
	],
	"meshes":[
		{
			"name":"C\u00edrculo",
			"primitives":[
				{
					"attributes":{
						"POSITION":0,
						"NORMAL":1,
						"TEXCOORD_0":2
					},
					"indices":3,
					"material":0
				},
				{
					"attributes":{
						"POSITION":4,
						"NORMAL":5,
						"TEXCOORD_0":6
					},
					"indices":7,
					"material":1
				},
				{
					"attributes":{
						"POSITION":8,
						"NORMAL":9,
						"TEXCOORD_0":10
					},
					"indices":11,
					"material":2
				}
			]
		}
	],
	"accessors":[
		{
			"bufferView":0,
			"componentType":5126,
			"count":632,
			"max":[
				0.9914448857307434,
				0.021406684070825577,
				0.9914448857307434
			],
			"min":[
				-0.9914448857307434,
				-0.19936439394950867,
				-0.9914448857307434
			],
			"type":"VEC3"
		},
		{
			"bufferView":1,
			"componentType":5126,
			"count":632,
			"type":"VEC3"
		},
		{
			"bufferView":2,
			"componentType":5126,
			"count":632,
			"type":"VEC2"
		},
		{
			"bufferView":3,
			"componentType":5123,
			"count":1440,
			"type":"SCALAR"
		},
		{
			"bufferView":4,
			"componentType":5126,
			"count":225,
			"max":[
				0.9523429274559021,
				0,
				0.9523429274559021
			],
			"min":[
				-0.9523429274559021,
				-0.19936439394950867,
				-0.9523429274559021
			],
			"type":"VEC3"
		},
		{
			"bufferView":5,
			"componentType":5126,
			"count":225,
			"type":"VEC3"
		},
		{
			"bufferView":6,
			"componentType":5126,
			"count":225,
			"type":"VEC2"
		},
		{
			"bufferView":7,
			"componentType":5123,
			"count":432,
			"type":"SCALAR"
		},
		{
			"bufferView":8,
			"componentType":5126,
			"count":64,
			"max":[
				0.9914448857307434,
				-0.19936439394950867,
				0.9914448857307434
			],
			"min":[
				-0.9914448857307434,
				-0.19936439394950867,
				-0.9914448857307434
			],
			"type":"VEC3"
		},
		{
			"bufferView":9,
			"componentType":5126,
			"count":64,
			"type":"VEC3"
		},
		{
			"bufferView":10,
			"componentType":5126,
			"count":64,
			"type":"VEC2"
		},
		{
			"bufferView":11,
			"componentType":5123,
			"count":186,
			"type":"SCALAR"
		}
	],
	"bufferViews":[
		{
			"buffer":0,
			"byteLength":7584,
			"byteOffset":0,
			"target":34962
		},
		{
			"buffer":0,
			"byteLength":7584,
			"byteOffset":7584,
			"target":34962
		},
		{
			"buffer":0,
			"byteLength":5056,
			"byteOffset":15168,
			"target":34962
		},
		{
			"buffer":0,
			"byteLength":2880,
			"byteOffset":20224,
			"target":34963
		},
		{
			"buffer":0,
			"byteLength":2700,
			"byteOffset":23104,
			"target":34962
		},
		{
			"buffer":0,
			"byteLength":2700,
			"byteOffset":25804,
			"target":34962
		},
		{
			"buffer":0,
			"byteLength":1800,
			"byteOffset":28504,
			"target":34962
		},
		{
			"buffer":0,
			"byteLength":864,
			"byteOffset":30304,
			"target":34963
		},
		{
			"buffer":0,
			"byteLength":768,
			"byteOffset":31168,
			"target":34962
		},
		{
			"buffer":0,
			"byteLength":768,
			"byteOffset":31936,
			"target":34962
		},
		{
			"buffer":0,
			"byteLength":512,
			"byteOffset":32704,
			"target":34962
		},
		{
			"buffer":0,
			"byteLength":372,
			"byteOffset":33216,
			"target":34963
		}
	],
	"buffers":[
		{
			"byteLength":33588,
			"uri":"ficha.bin"
		}
	]
}
